<?xml version="1.0" standalone="no"?>
<!DOCTYPE svg PUBLIC "-//W3C//DTD SVG 20010904//EN"
 "http://www.w3.org/TR/2001/REC-SVG-20010904/DTD/svg10.dtd">
<svg version="1.0" xmlns="http://www.w3.org/2000/svg" viewBox="0 0 512.000000 512.000000"
 preserveAspectRatio="xMidYMid meet">

<g transform="translate(0.000000,512.000000) scale(0.100000,-0.100000)"
fill="currentColor" stroke="none">
<path d="M3605 4374 c-49 -7 -366 -50 -703 -94 -406 -53 -621 -86 -636 -95
-28 -19 -46 -56 -46 -97 0 -27 20 -52 145 -177 l145 -146 -415 -415 c-275
-276 -416 -424 -420 -442 -4 -16 -4 -40 0 -55 8 -34 325 -356 366 -374 57 -23
126 10 144 69 15 51 -5 84 -131 212 l-123 126 405 404 c223 223 412 418 420
433 27 51 10 83 -99 195 -55 56 -94 102 -86 103 8 0 241 31 519 68 453 60 505
65 508 50 2 -9 -26 -239 -62 -512 -37 -273 -66 -501 -66 -509 0 -7 -44 31 -97
84 -113 111 -131 122 -182 113 -31 -6 -117 -88 -661 -631 l-625 -624 -140 140
c-149 149 -176 165 -231 138 -60 -29 -57 -14 -158 -787 -88 -667 -94 -726 -81
-757 10 -24 26 -40 51 -50 34 -14 75 -10 760 80 496 66 732 101 748 111 28 19
46 56 46 97 0 27 -20 52 -145 177 l-145 146 415 415 c275 276 416 424 420 443
4 15 4 39 0 55 -7 30 -312 344 -357 368 -84 44 -181 -37 -153 -128 5 -12 63
-79 131 -148 l123 -126 -405 -404 c-223 -223 -412 -418 -420 -433 -27 -51 -10
-83 99 -194 55 -57 97 -103 91 -103 -5 -1 -238 -31 -519 -68 -457 -61 -510
-66 -513 -51 -2 9 26 240 62 513 37 273 66 502 66 509 0 6 44 -32 97 -85 113
-111 131 -122 182 -113 31 6 117 88 661 631 l625 624 140 -140 c149 -149 176
-165 231 -138 60 29 57 14 158 787 105 800 104 771 37 805 -35 18 -54 18 -176
0z"/>
</g>
</svg>
