
<svg version="1.0" xmlns="http://www.w3.org/2000/svg" viewBox="0 0 512.000000 512.000000"
 preserveAspectRatio="xMidYMid meet">

<g transform="translate(0.000000,512.000000) scale(0.100000,-0.100000)"
fill="currentColor" stroke="none">
<path d="M2079 4583 c-457 -458 -459 -461 -438 -537 10 -38 32 -60 73 -76 63
-24 74 -15 409 318 l317 317 0 -1107 c0 -706 4 -1116 10 -1133 38 -101 182
-101 220 0 6 17 10 427 10 1133 l0 1107 313 -313 c327 -327 344 -340 408 -322
43 13 67 36 78 76 21 76 19 79 -438 537 l-426 427 -55 0 -55 0 -426 -427z"/>
<path d="M873 3726 c-17 -8 -43 -32 -57 -53 -13 -21 -202 -366 -420 -768
l-396 -729 0 -781 c0 -867 -1 -848 67 -977 66 -127 199 -234 348 -281 l70 -22
2075 0 2075 0 70 22 c149 47 282 154 348 281 69 131 68 112 65 984 l-3 783
-351 754 c-269 581 -356 759 -378 775 -26 20 -40 21 -350 21 -361 0 -362 0
-393 -73 -21 -50 -2 -107 46 -139 33 -22 40 -23 295 -23 l261 0 275 -623 276
-622 -401 -6 c-449 -6 -480 -10 -629 -85 -150 -75 -252 -179 -359 -367 -94
-167 -209 -262 -364 -302 -84 -22 -882 -22 -966 0 -155 40 -270 135 -364 302
-107 188 -209 292 -359 367 -150 75 -181 79 -621 84 -216 2 -393 7 -393 10 0
4 146 284 323 622 l323 615 210 5 c236 6 253 10 281 78 13 32 14 42 2 76 -8
22 -27 49 -42 60 -27 20 -42 21 -280 23 -200 2 -259 0 -284 -11z m239 -1727
c29 -6 86 -26 127 -45 101 -47 208 -155 274 -279 123 -230 292 -362 537 -420
95 -22 925 -22 1020 0 245 58 414 190 537 420 66 124 173 232 274 279 41 19
98 39 127 45 34 7 200 11 462 11 l410 0 0 -695 c0 -685 0 -695 -21 -752 -43
-113 -158 -194 -303 -213 -94 -12 -3898 -12 -3992 0 -145 19 -260 100 -303
213 -21 57 -21 67 -21 752 l0 695 410 0 c262 0 428 -4 462 -11z"/>
</g>
</svg>
