<?xml version="1.0" standalone="no"?>
<!DOCTYPE svg PUBLIC "-//W3C//DTD SVG 20010904//EN"
 "http://www.w3.org/TR/2001/REC-SVG-20010904/DTD/svg10.dtd">
<svg version="1.0" xmlns="http://www.w3.org/2000/svg" viewBox="0 0 512.000000 512.000000"
 preserveAspectRatio="xMidYMid meet">

<g transform="translate(0.000000,512.000000) scale(0.100000,-0.100000)"
fill="currentColor" stroke="none">
<path d="M1050 5106 c-134 -38 -245 -140 -290 -269 -18 -51 -20 -52 -65 -59
-67 -10 -134 -54 -170 -112 -26 -43 -30 -59 -30 -120 1 -53 6 -81 22 -112 37
-70 117 -124 182 -124 l31 0 2 -961 3 -961 24 -19 c28 -22 69 -25 97 -5 19 14
19 39 24 978 l5 963 130 0 130 0 5 -1128 c5 -1103 5 -1129 24 -1143 29 -21 82
-18 106 6 19 19 20 33 20 220 l0 200 318 -2 317 -3 5 -203 c5 -187 7 -205 24
-218 21 -15 74 -19 92 -6 33 22 34 42 34 1166 l0 1116 733 0 c402 0 737 4 743
8 22 14 35 53 29 84 -14 61 64 58 -1484 58 -775 0 -1417 3 -1426 6 -19 8 -45
55 -45 84 0 12 13 35 29 51 l29 29 1860 0 c1848 0 1859 0 1885 -20 45 -36 44
-102 -2 -137 -12 -9 -95 -12 -314 -13 -334 0 -360 -4 -372 -58 -6 -31 7 -70
29 -84 6 -4 109 -8 229 -8 l217 0 0 -1210 0 -1211 -25 -49 -25 -50 -1622 2
-1622 3 -25 48 c-21 42 -25 65 -29 180 -5 151 -12 167 -72 167 -25 0 -43 -7
-56 -21 -17 -19 -19 -37 -18 -163 2 -188 17 -232 120 -333 l72 -72 -80 -738
-80 -738 23 -44 c38 -70 69 -81 227 -81 161 0 200 14 232 83 11 23 79 263 151
532 72 270 134 496 138 503 5 8 104 -63 308 -220 l302 -233 0 -71 c1 -121 43
-197 136 -247 38 -21 53 -22 265 -22 247 0 277 5 336 58 56 48 77 100 82 197
l5 85 226 175 c124 96 265 205 313 242 l87 68 11 -38 c5 -20 69 -257 142 -526
77 -285 141 -502 153 -520 36 -55 74 -66 220 -66 104 0 137 4 165 18 50 25 80
75 80 131 0 25 -36 367 -78 760 l-78 714 53 53 c30 30 66 79 81 111 l27 58 5
1230 5 1230 41 5 c91 13 169 85 194 180 36 138 -80 290 -222 290 -20 0 -28 5
-28 18 0 9 -13 45 -30 80 -34 71 -115 159 -178 191 -104 53 -42 51 -1612 50
-1132 -1 -1465 -4 -1500 -13z m2980 -146 c59 -16 128 -67 160 -117 17 -26 30
-51 30 -55 0 -4 -747 -8 -1660 -8 -913 0 -1660 4 -1660 8 0 19 61 102 94 127
74 56 3 54 1561 54 914 1 1453 -3 1475 -9z m-2092 -852 l2 -198 -320 0 -320 0
0 200 0 200 318 -2 317 -3 3 -197z m2 -598 l0 -250 -320 0 -320 0 0 250 0 250
320 0 320 0 0 -250z m0 -650 l0 -250 -320 0 -320 0 0 250 0 250 320 0 320 0 0
-250z m2029 -1227 c0 -5 -248 -200 -552 -435 l-552 -428 -305 0 -305 0 -554
430 c-305 236 -556 432 -559 435 -3 3 632 5 1411 5 780 0 1417 -3 1416 -7z
m175 -755 c37 -348 70 -654 73 -680 l6 -48 -99 0 -99 0 -148 551 c-82 303
-147 552 -145 553 1 1 77 60 167 129 89 70 166 127 170 127 4 0 37 -285 75
-632z m-2741 362 c6 -6 -217 -864 -279 -1072 -5 -16 -19 -18 -105 -18 l-100 0
6 33 c3 17 34 307 70 642 36 336 67 624 70 642 l6 32 162 -126 c89 -69 166
-129 170 -133z m1415 -671 c-4 -34 -12 -58 -27 -72 -21 -21 -29 -22 -232 -22
l-211 0 -24 28 c-18 21 -24 40 -24 73 l0 44 261 0 262 0 -5 -51z"/>
</g>
</svg>
